<?xml version="1.0" standalone="no"?>
<!DOCTYPE svg PUBLIC "-//W3C//DTD SVG 1.1//EN" "http://www.w3.org/Graphics/SVG/1.1/DTD/svg11.dtd" >
<svg xmlns="http://www.w3.org/2000/svg">
<metadata>
This is a custom SVG webfont generated by Font Squirrel.
Foundry     : Monotype Typography
Foundry URL : httpwwwmonotypecomhtmlmtnamemswelcomehtml
</metadata>
<defs>
<font id="webfontVFPDM5GX" horiz-adv-x="1603" >
<font-face units-per-em="2048" ascent="1638" descent="-410" />
<missing-glyph horiz-adv-x="512" />
<glyph unicode=" "  horiz-adv-x="512" />
<glyph unicode="&#x09;" horiz-adv-x="512" />
<glyph unicode="&#xa0;" horiz-adv-x="512" />
<glyph unicode="!" horiz-adv-x="794" d="M599 528l-225 -272h-172v1199h73v-1122h66v1122h258v-927zM592 180v-180h-390v180h390z" />
<glyph unicode="&#x22;" horiz-adv-x="757" d="M156 1603h451v-397h-106l-112 112v173h143v45h-382zM149 1490l1 -157l127 -127h68v285z" />
<glyph unicode="#" horiz-adv-x="1368" d="M378 1052l78 372h216l-79 -372h329l79 372h215l-78 -372h156v-216h-201l-58 -275h259v-216h-304l-78 -372h-216l78 372h-329l-78 -372h-216l78 372h-155v216h201l57 275h-258v216h304zM877 836h-329l-58 -275h329z" />
<glyph unicode="$" horiz-adv-x="1153" d="M617 -179h-141v175q-157 21 -262.5 110.5t-120.5 301.5h247q-1 -11 -1 -16q0 -70 36 -122t101 -69v424q-212 98 -286 193.5t-74 209.5q0 138 99 236t261 111v52h141v-52q174 -14 277 -112t103 -256h-246q-17 157 -134 170v-333l136 -61q115 -52 183.5 -118.5t95 -138.5 t26.5 -146q0 -161 -119.5 -270t-321.5 -114v-175zM476 1176q-113 -21 -113 -118q0 -83 113 -150v268zM617 192h3q84 0 138 48q56 49 56 117q0 131 -197 207v-372z" />
<glyph unicode="%" horiz-adv-x="1898" d="M431 671q-294 0 -294 372t295 372q145 0 219 -96.5t74 -275.5q0 -372 -294 -372zM429 799q85 0 85 243q0 245 -83 245t-83 -243q0 -245 81 -245zM356 0l1007 1391h179l-1007 -1391h-179zM1464 -18q-294 0 -294 372t295 372q145 0 219 -97t74 -275q0 -372 -294 -372z M1462 110q84 0 84 243q0 245 -82 245q-83 0 -83 -243q0 -245 81 -245z" />
<glyph unicode="&#x26;" horiz-adv-x="1642" d="M1559 223v-223h-412l-126 154q-199 -178 -449 -178q-227 0 -361.5 127t-134.5 300q0 133 85.5 240t298.5 209q-109 126 -109 253q0 148 110.5 228t268.5 80q160 0 266 -80t106 -204q0 -193 -242 -316l198 -251q112 152 172 289h329v-223h-170q-76 -158 -168 -262 l114 -143h224zM721 988q134 60 134 139q0 41 -33.5 71t-80.5 30q-45 0 -78.5 -25.5t-33.5 -62.5q0 -38 92 -152zM601 681q-207 -86 -207 -233q0 -83 65.5 -146.5t168.5 -63.5q120 0 238 109z" />
<glyph unicode="'" horiz-adv-x="402" d="M90 1603h210v-397h-106l-112 112v173h143v45h-143z" />
<glyph unicode="(" horiz-adv-x="802" d="M203 1222v201l166 165h313v-82l-284 -285zM202 136h202l278 -278v-52h-321l-159 157v173zM187 1139h210v-892h-210v405h61v-337h37v741h-37v-329h-61v412z" />
<glyph unicode=")" horiz-adv-x="802" d="M666 172v-201l-166 -165l-313 1v82l284 284zM667 1258h-202l-278 278v52h321l159 -157v-173zM682 255h-210v892h210v-405h-61v337h-37v-741h37v329h61v-412z" />
<glyph unicode="*" horiz-adv-x="1174" d="M986 558l-199 -139l-105 139q-2 100 -96 241q-84 -133 -84 -241l-97 -139l-201 139l98 140q96 28 209 161q-11 1 -55 10q-66 13 -114 13q-51 0 -94 -11l-168 56l81 234l167 -55q48 -75 208 -151q-18 181 -72 265v171h244v-171q-71 -107 -71 -265q185 89 219 151l161 55 l78 -234l-155 -56q-55 15 -104 15q-57 0 -167 -27q100 -122 214 -161z" />
<glyph unicode="+" horiz-adv-x="1368" d="M122 823h438v438h248v-438h438v-249h-438v-438h-248v438h-438v249z" />
<glyph unicode="," horiz-adv-x="569" d="M202 -7v202h195v-277l-127 -127h-203l19 79z" />
<glyph unicode="-" horiz-adv-x="682" d="M0 599h802v-56h-736v-43h736v-148h-801z" />
<glyph unicode="." horiz-adv-x="569" d="M397 202v-202h-187v202h187z" />
<glyph unicode="/" horiz-adv-x="802" d="M490 1199h200v-195l-331 -1004h-276z" />
<glyph unicode="0" d="M1401 255l-243 -258h-719l-237 258v931l199 212h782l218 -231v-199h-281v80l-81 7l-1 -101l-50 1v139h-467l-63 -99v-608l75 -93h455v575h50v-489h82v595h281v-720z" />
<glyph unicode="1" horiz-adv-x="809" d="M202 1129l225 272h172v-1401h-73v1324h-66v-1324h-258v1129z" />
<glyph unicode="2" d="M195 942h280v78l72 69h840v47l-244 265h-704l-244 -265v-194zM446 833l-243 -266v-568h1191v94l-201 218h-653l-57 54v93l57 71h645l223 241l8 61zM1401 1035v-117h-337v117h337z" />
<glyph unicode="3" d="M206 999h247v85h411l49 -62v-193h-367l6 -302h602v-210h-50l-7 217h-50v-224h-841v-140l142 -170h947l99 108v541l-184 180v309l-219 263h-686l-99 -224v-178z" />
<glyph unicode="4" d="M440 1401h-63l-168 -193v-898h230zM496 519h411v403l252 -256h-120v-666h-125v310h-418v209zM1100 612l101 -14l-15 -79h222v-209h-201v-310h-107v612z" />
<glyph unicode="5" d="M1249 1200l138 193l-1203 -1l6 -562l262 -299h941v92l-193 208h-624l-90 92v116l55 46h667v61h-722v54h763zM1393 477v-108h-275v108h275zM204 315h1189l-13 -84l-214 -224h-769l-193 216v92z" />
<glyph unicode="6" d="M199 1096l-6 54l240 258h711l241 -265v-202h-275v101l-55 63zM468 1042v-109h-276v109h276zM419 319h608l89 54l-6 93l-97 62h-820v304h958l242 -280v-280l-229 -265h-779l-186 211l7 310h213v-209z" />
<glyph unicode="7" horiz-adv-x="1611" d="M202 1346l241 -274h540l6 -54l-273 -313v-665h-55v680h-47v-719l294 7v493l424 484l69 2v413l-96 1v-110h-815v47h767v55h-1055v-47z" />
<glyph unicode="8" d="M401 -1l-202 209v101h974v237h-59v-247l-60 10v237h-619v-247l-236 10v373l118 127l-110 118v182h237l-9 -136l102 -119h415l-8 183l-68 72h-669v173l119 119h677l228 -245l-8 -347l170 -200v-464l-136 -146h-856z" />
<glyph unicode="9" horiz-adv-x="1596" d="M202 0v71l223 241h975v-195l-107 -117h-1091zM1408 475v-117h-366v117h366zM598 825l-94 101v101l43 62h853v94l-200 218h-761l-237 -258v-357l244 -265h962v576h-251v-272h-559z" />
<glyph unicode=":" horiz-adv-x="569" d="M202 0v210h203v-210h-203zM195 1401h195v-263h-98v188h-45v-188h-52v263z" />
<glyph unicode=";" horiz-adv-x="569" d="M195 1401h195v-405h-98v290h-45v-290h-52v405zM202 -7v202h195v-277l-127 -127h-203l19 79z" />
<glyph unicode="&#x3c;" horiz-adv-x="1368" d="M1246 120l-1124 466v225l1124 466v-265l-778 -313l778 -314v-265z" />
<glyph unicode="=" horiz-adv-x="1368" d="M122 1064h1124v-248h-1124v248zM122 581h1124v-248h-1124v248z" />
<glyph unicode="&#x3e;" horiz-adv-x="1368" d="M122 1277l1124 -466v-225l-1124 -466v265l778 314l-778 313v265z" />
<glyph unicode="?" horiz-adv-x="1401" d="M978 567l243 265l-1 568h-1018v-514l201 202h480l58 -54v-93l-57 -71h-338l-223 -242v-428h290l-1 367h366zM316 0v127h313l1 -127h-314z" />
<glyph unicode="@" horiz-adv-x="1599" d="M353 198h869l6 89l-428 912h-32l-415 -925v-76zM171 97h1154v248l-457 966h-149l-315 -637h-105l367 742h270l494 -1064v-352h-1259v97z" />
<glyph unicode="A" horiz-adv-x="1599" d="M1393 119v-119h-1195v119h1195zM264 198h1070l7 107l-526 1103h-40l-511 -1118v-92z" />
<glyph unicode="B" horiz-adv-x="1596" d="M202 223h-12v-56h12v56zM513 1392v1h-311v-1170h44v893h49v-1055h-49v106h-44v-165h311v1109h-7v281h7zM506 1392h527l211 -225v-392l157 -162v-612h-846v281h583v272l-583 4v277h372v170l-56 106h-365v281z" />
<glyph unicode="C" d="M547 311h876l-293 -311h-463v229h-61v-229h-60zM1122 924h284v230l-180 247h-783l-241 -257v-1144h285v1044l51 45h541l43 -51v-114z" />
<glyph unicode="D" d="M206 1401l287 -310v-909h584v45l-522 1v63h583v792h-523v308h576l217 -233v-913l-235 -245h-967v1401z" />
<glyph unicode="E" d="M204 1167l236 234h946v-310h-852l-60 -60v-1031h-273zM593 718l120 119h290v-300h-299l-111 110v71zM534 290h862l-291 -290h-460v236h-60v-236h-51v290z" />
<glyph unicode="F" d="M1401 1401v-322h-830v322h830zM517 1399v-1401h-320v170h80v-118h41v1035l-41 1v-878h-80l1 923l246 268h73zM1011 823v-301h-283l-115 125v45l121 131h277z" />
<glyph unicode="G" horiz-adv-x="1611" d="M1139 901v111l-101 110h-469v-614h-104v614h-48v-832h48v159h101v-172h573v283h-104l-102 110v59h468v-732h-933l-262 283v952l157 169h821l211 -227v-277z" />
<glyph unicode="H" d="M492 1404v-1403h-290v1403h290zM536 827h581v578l289 3v-671l-42 -3v616h-51v-1294h51v624h44v-680h-291v523h-583z" />
<glyph unicode="I" horiz-adv-x="802" d="M210 1401h382v-1394h-55v1322h-49v-1322h-56l-222 244v1150z" />
<glyph unicode="J" d="M202 786h90l186 -225v-376h551v49h-448v69h544v786h-551v312h593l234 -265v-878l-227 -258h-972v786z" />
<glyph unicode="K" horiz-adv-x="1596" d="M203 1401h280v-572h429l94 115v349h287v-511l-244 -263h-566v-519h-280v1293h244v53h-244v55zM776 465h288l329 -357v-100h-280l-337 364v93z" />
<glyph unicode="L" d="M202 1401h288v-910h-38v818h-44v-1001h44v84h38v-84h918v-85l-213 -223h-993v1401z" />
<glyph unicode="M" horiz-adv-x="2000" d="M204 102l2 1301h228l190 -203v-1089h-253v1022h-87v-1031h-80zM634 60l5 -60h-425l4 60h416zM687 1408v-275l267 -1v-1132h245v1193l-199 214zM1203 1132l1 271h373l213 -227v-1176h-260l-1 1133z" />
<glyph unicode="N" d="M203 1401v-1402h280v1157l-229 245h-51zM602 1401v-300h451v-983l110 -119h230v847h-230v-655h-51v918h51v-190h230v237l-230 245h-561z" />
<glyph unicode="O" horiz-adv-x="1593" d="M202 430h281v595h82v-489h50v575h455l75 -93v-608l-63 -99h-467v139l-50 1l-1 -101l-81 7v80h-281v-199l218 -231h782l199 212v931l-237 258h-719l-243 -258v-720z" />
<glyph unicode="P" d="M202 1416h43l246 -265v-521h629v413l-44 47h-390v264h-50v-264h-51v310h578l238 -256v-614l-195 -211h-715v-312h-289v1409z" />
<glyph unicode="Q" horiz-adv-x="1593" d="M1401 0v1423l-72 -8l-216 -235v-547h-580l-37 47v422h374v258h43v-258h64v305h-546l-229 -258v-617l201 -219h710v-313h288z" />
<glyph unicode="R" horiz-adv-x="1596" d="M264 1394l-59 3l-6 -1398h281v310h733l179 191l-1 679l-212 212h-595l-1 -300h76v237h51v-227h341l60 -73v-428l-640 -1v587zM991 236h307l95 -128l8 -109h-289l-121 137v100z" />
<glyph unicode="S" d="M1115 365v127h286v-127h-286zM1378 986v183l-217 232h-735l-224 -240v-356l232 -249h960v57l-224 241h-635l-47 58v116l62 58h503l86 -100h239zM202 489h286v-107l62 -67h844v-75l-224 -240h-736l-232 257v232z" />
<glyph unicode="T" horiz-adv-x="1596" d="M210 1408h1183v-292h-791v-182l-110 -2l-282 302v174zM891 1042v-915h-60v247h-170v-367h281v1035h-51zM661 438v613h170v-613h-170z" />
<glyph unicode="U" horiz-adv-x="1596" d="M202 1402h317v-1134l-245 -268h-72v1402zM1117 1408h276v-1192l-192 -210h-634v171h514v46h-514v78h514l36 46v1061z" />
<glyph unicode="V" d="M200 1278v119h1195v-119h-1195zM1329 1107l-511 -1118h-40l-526 1103l7 107h1070v-92z" />
<glyph unicode="W" horiz-adv-x="2000" d="M206 1400l301 1v-1163l-238 -238h-63v1400zM791 1400h291v-1170l-230 -230h-292v302h231v1098zM1100 302l8 -302h452l230 238l-8 1162h-407v-174h62l8 129h53v-1053h-61l8 869h-71v-869h-274z" />
<glyph unicode="X" horiz-adv-x="1798" d="M412 1184l990 -996h-1012l982 996h-960zM206 1386l96 -90h1152l104 91zM323 99l-88 -98h1315l-97 98h-1130z" />
<glyph unicode="Y" d="M210 1391h290v-672h-60l-230 245v427zM551 0v1028h509l44 45l-2 328h78l221 -236v-210l-221 -236h-349v-719h-59v719h-60v-719h-161z" />
<glyph unicode="Z" d="M210 1393h1183v-307l-385 -416h-128v415h-671zM1393 7v308h-663v401h-136l-385 -416v-293h998v247h107v-246z" />
<glyph unicode="[" horiz-adv-x="802" d="M397 1288v-1198h-195v1198h195zM203 1394v134l52 60h427v-82l-112 -112h-367zM202 1h337l143 -143v-52h-412l-68 67v128z" />
<glyph unicode="\" horiz-adv-x="802" d="M280 1h-200l1 195l336 1003l276 -1z" />
<glyph unicode="]" horiz-adv-x="802" d="M593 82l-2 1228h-203l2 -1228h203zM210 -1l-112 -112v-82l427 1l52 60v134zM583 1535l-68 67h-412v-52l143 -143h337v128z" />
<glyph unicode="^" horiz-adv-x="1194" d="M114 592l376 799h223l366 -799h-284l-198 489l-197 -489h-286z" />
<glyph unicode="_" horiz-adv-x="1139" d="M-1 6v-133h1069v-38h-1069v-43h1140v215z" />
<glyph unicode="`" horiz-adv-x="682" d="M495 1095h-165l-363 318h375z" />
<glyph unicode="a" horiz-adv-x="1401" d="M1199 101v-101h-1001v101h1001zM253 169h897l5 91l-440 939h-34l-428 -952v-78z" />
<glyph unicode="b" horiz-adv-x="1401" d="M200 192h-10v-48h10v48zM459 1198v1h-259v-1007h37v768h40v-907h-40v91h-37v-142h259v955h-6v241h6zM453 1198h439l176 -194v-337l131 -139v-527h-705v242h486v234l-486 3v239h310v146l-47 92h-304v241z" />
<glyph unicode="c" horiz-adv-x="1408" d="M491 266h715l-239 -266h-379v196h-49v-196h-49zM960 791h232v197l-147 211h-639l-197 -220v-979h232v893l43 39h441l35 -44v-97z" />
<glyph unicode="d" horiz-adv-x="1401" d="M206 1199l237 -265v-778h482v38l-431 1v54h482v678h-432v264h475l180 -200v-781l-194 -210h-799v1199z" />
<glyph unicode="e" horiz-adv-x="1401" d="M204 999l198 200h796v-265h-717l-50 -52v-882h-230zM531 615l100 101h244v-256h-251l-93 94v61zM481 249h725l-245 -249h-387v202h-50v-202h-43v249z" />
<glyph unicode="f" horiz-adv-x="1401" d="M1199 1199v-276h-691v276h691zM463 1198v-1200h-266v146h66v-101h35v886l-35 1v-752h-66l1 790l205 230h60zM874 704v-257h-235l-96 106v39l101 112h230z" />
<glyph unicode="g" horiz-adv-x="1401" d="M982 771v95l-85 94h-389v-525h-87v525h-40v-712h40v136h84v-147h477v242h-88l-84 94v51h389v-627h-776l-217 243v815l130 144h683l175 -194v-237z" />
<glyph unicode="h" horiz-adv-x="1393" d="M444 1196v-1195h-242v1195h242zM480 705h484v491l240 3v-572l-35 -2v524h-42v-1101h42v531h37v-579h-242v446h-485z" />
<glyph unicode="i" horiz-adv-x="689" d="M210 1199h284v-1192h-41v1130h-36v-1130h-42l-165 209v983z" />
<glyph unicode="j" horiz-adv-x="1401" d="M202 673h74l154 -193v-360h454v80h-370v60h449v672h-454v267h489l193 -227v-752l-187 -220h-802v673z" />
<glyph unicode="k" horiz-adv-x="1401" d="M203 1199h234v-490h360l78 99v298h241v-437l-205 -225h-474v-444h-234v1106h204v46h-204v47zM683 398h240l276 -305v-86h-234l-282 311v80z" />
<glyph unicode="l" horiz-adv-x="1401" d="M202 1199h238v-779h-31v700h-37v-857h37v73h31v-73h759v-72l-176 -191h-821v1199z" />
<glyph unicode="m" horiz-adv-x="1798" d="M204 86l2 1109h200l167 -173v-928h-222v871h-77v-879h-70zM581 51l5 -51h-374l4 51h365zM628 1199v-234l235 -1v-964h214v1015l-175 183zM1081 964l1 231h327l187 -194v-1001h-228l-1 965z" />
<glyph unicode="n" horiz-adv-x="1401" d="M203 1199v-1200h231v990l-189 210h-42zM532 1199v-257h371v-841l91 -102h190v725h-190v-561h-42v786h42v-163h190v203l-190 210h-462z" />
<glyph unicode="o" horiz-adv-x="1401" d="M202 367h234v506h68v-416h41v489h379l62 -79v-517l-52 -84h-389v118l-41 1l-1 -86l-67 6v68h-234v-169l182 -197h649l166 180v793l-197 219h-598l-202 -219v-613z" />
<glyph unicode="p" horiz-adv-x="1401" d="M202 1199h36l203 -224v-441h518v349l-36 40h-322v223h-41v-223h-42v263h477l196 -217v-520l-161 -178h-589v-264h-239v1192z" />
<glyph unicode="q" horiz-adv-x="1401" d="M1199 0v1206l-60 -7l-179 -199v-463h-483l-30 39v358h310v219h36v-219h54v259h-455l-190 -220v-522l167 -186h591v-265h239z" />
<glyph unicode="r" horiz-adv-x="1408" d="M253 1196l-49 3l-5 -1200h232v266h605l147 164v583l-175 182h-492v-257h62v203h43v-195h282l48 -63v-367l-528 -1l1 504zM853 202h253l78 -109l7 -94h-239l-99 118v85z" />
<glyph unicode="s" horiz-adv-x="1408" d="M961 312v109h238v-109h-238zM1180 844v156l-181 199h-611l-186 -205v-305l193 -213h798v49l-186 206h-528l-39 50v99l51 49h419l71 -85h199zM202 418h238v-91l51 -57h702v-65l-186 -205h-612l-193 220v198z" />
<glyph unicode="t" horiz-adv-x="1401" d="M210 1191h981v-247h-656v-154l-92 -1l-233 255v147zM775 882v-774h-50v209h-141v-310h233v875h-42zM584 371v519h141v-519h-141z" />
<glyph unicode="u" horiz-adv-x="1393" d="M202 1194h267v-965l-206 -229h-61v1194zM974 1199h232v-1015l-162 -179h-534v145h433v40h-433v66h433l31 40v903z" />
<glyph unicode="v" horiz-adv-x="1401" d="M200 1097v102h999v-102h-999zM1144 950l-427 -961h-34l-440 948l6 92h895v-79z" />
<glyph unicode="w" horiz-adv-x="1790" d="M206 1198l266 1v-995l-211 -204h-55v1198zM722 1198h257v-1001l-203 -197h-257v258h203v940zM995 258l7 -258h398l203 204l-7 994h-359v-148h55l7 109h47v-901h-54l7 744h-63v-744h-241z" />
<glyph unicode="x" d="M388 1024l875 -861h-895l869 861h-849zM206 1198l85 -78h1018l92 79zM310 86l-79 -85h1163l-85 85h-999z" />
<glyph unicode="y" horiz-adv-x="1401" d="M210 1183h240v-572h-49l-191 208v364zM493 0v874h423l36 38l-1 279h64l184 -200v-179l-184 -201h-289v-611h-49v611h-50v-611h-134z" />
<glyph unicode="z" horiz-adv-x="1408" d="M210 1199h989v-264l-322 -358h-107v357h-561zM1199 7v265h-555v345h-113l-322 -358v-252h835v212h89v-211z" />
<glyph unicode="{" horiz-adv-x="788" d="M59 364v228q93 5 139 39.5t63 101t17 223.5q0 214 34.5 281t112.5 110.5t265 43.5h53v-228q-132 0 -168 -25t-36 -112q0 -278 -37 -378.5t-151 -169.5q96 -50 141.5 -146t45.5 -401q0 -84 39.5 -111t164.5 -27v-227h-52q-174 0 -262.5 42t-119 123.5t-30.5 277.5 q0 151 -17.5 216.5t-63 99.5t-138.5 39z" />
<glyph unicode="|" horiz-adv-x="1251" d="M501 1415h249v-1865h-249v1865z" />
<glyph unicode="}" horiz-adv-x="788" d="M729 592v-228q-93 -4 -139 -38.5t-63 -101t-17 -223.5q0 -198 -34 -277t-125 -118.5t-253 -39.5h-53v227q132 0 168 25.5t36 112.5q0 261 33.5 369.5t154.5 178.5q-95 49 -141 145.5t-46 401.5q0 84 -39.5 110.5t-164.5 26.5v228h53q173 0 262 -42.5t119 -123.5t30 -278 q0 -150 17.5 -215.5t63 -100t138.5 -39.5z" />
<glyph unicode="~" horiz-adv-x="1194" d="M1159 637q-162 -142 -319 -142q-70 0 -135 25t-159 71q-133 65 -202 65q-150 0 -309 -151v255q164 142 328 142q98 0 270 -85q153 -76 229 -76q135 0 297 152v-256z" />
<glyph unicode="&#xa1;" horiz-adv-x="725" d="M530 982v-335h-335v335h335zM437 497l86 -525v-381h-309v381l79 525h144z" />
<glyph unicode="&#xa2;" horiz-adv-x="1153" d="M853 386l238 -105q-39 -111 -162.5 -202t-315.5 -91q-85 0 -152 16l-153 -441h-134l173 480q-284 135 -284 446q0 226 147 368t354 142q57 0 115 -14l162 438h129l-173 -487q37 -21 61 -39l25 -18v106h181v-397h-211q-54 96 -137 130l-170 -477q24 -8 56 -8 q166 0 251 153zM592 742q-99 -8 -155.5 -77.5t-56.5 -175.5q0 -110 62 -171z" />
<glyph unicode="&#xa3;" horiz-adv-x="1174" d="M963 448l142 -28q1 -23 1 -39q0 -183 -75.5 -291t-210.5 -108q-139 0 -264 109q-101 -109 -223 -109q-102 0 -167.5 65.5t-65.5 170.5q0 99 63.5 165.5t157.5 66.5q66 0 153 -43q0 76 -37 181h-304v204h200q-97 191 -97 301q0 147 120.5 234.5t304.5 87.5 q169 0 271.5 -89.5t117.5 -265.5l-242 -30q-4 190 -153 190q-63 0 -101.5 -33.5t-38.5 -77.5q0 -62 73 -203q40 -79 56 -114h258v-204h-213q4 -67 4 -95q0 -107 -26 -180q86 -37 154 -37q126 0 142 172zM437 214q-71 86 -131 86q-32 0 -53.5 -23.5t-21.5 -58.5q0 -40 28 -66 t61 -26q80 0 117 88z" />
<glyph unicode="&#xa4;" horiz-adv-x="1368" d="M440 1105q116 68 244 68q129 0 245 -68l131 132l163 -162l-132 -132q67 -116 67 -244q0 -129 -67 -245l132 -132l-163 -162l-131 132q-116 -67 -244 -67q-132 0 -245 67l-132 -132l-162 162l132 132q-68 113 -68 245q0 128 68 244l-132 132l162 162zM684 946 q-100 0 -173.5 -70.5t-73.5 -176.5q0 -103 72.5 -175.5t174.5 -72.5t175 72.5t73 175.5q0 106 -74 176.5t-174 70.5z" />
<glyph unicode="&#xa5;" horiz-adv-x="1430" d="M498 674h-461v142h363l-235 340h-170v235h696v-235h-137l204 -340l207 340h-143v235h613v-235h-171l-225 -340h354v-142h-447l-42 -63v-117h489v-141h-489v-118h194v-235h-751v235h195v118h-505v141h505v117z" />
<glyph unicode="&#xa6;" horiz-adv-x="1251" d="M501 1415h249v-780h-249v780zM501 331h249v-781h-249v781z" />
<glyph unicode="&#xa7;" horiz-adv-x="1067" d="M111 -52h263q2 -82 53 -127t120 -45q72 0 108.5 37.5t36.5 81.5q0 55 -47 92.5t-205 104.5q-219 92 -305 180t-86 200q0 197 208 304q-163 115 -163 284t121.5 262t308.5 93q213 0 323.5 -108t110.5 -265h-263q-9 164 -179 164q-71 0 -107 -33t-36 -73q0 -59 48 -100.5 t212 -109.5q202 -84 293.5 -173t91.5 -205q0 -180 -203 -310q156 -96 156 -278q0 -154 -117.5 -256.5t-308.5 -102.5q-194 0 -311.5 109.5t-122.5 273.5zM671 288q96 73 96 158q0 86 -158 156l-214 94q-93 -62 -93 -147q0 -50 37 -88.5t138 -84.5z" />
<glyph unicode="&#xa8;" horiz-adv-x="682" d="M470 1597h207v-391h-106l-112 112v173h143v39h-146zM7 1490l1 -157l127 -127h68v285zM236 1591l-47 -56h-189v56h236z" />
<glyph unicode="&#xa9;" horiz-adv-x="1516" d="M1524 647q0 -317 -225.5 -541.5t-540.5 -224.5q-317 0 -541.5 224t-224.5 542q0 317 224 541.5t542 224.5q315 0 540.5 -225t225.5 -541zM1373 647q0 254 -181 434.5t-434 180.5q-254 0 -434.5 -181t-180.5 -434q0 -254 181 -435t434 -181t434 180.5t181 435.5zM944 533 l161 -54q-35 -122 -123.5 -191t-213.5 -69q-168 0 -277 111t-109 310q0 198 104 314.5t285 116.5q249 0 334 -243l-162 -38q-50 139 -178 139q-99 0 -153 -74.5t-54 -208.5q0 -138 53.5 -211t144.5 -73q138 0 188 171z" />
<glyph unicode="&#xaa;" horiz-adv-x="811" d="M776 951v-134h-302v45q-81 -54 -172 -54q-87 0 -158 47.5t-71 133.5q0 84 71.5 140.5t184.5 56.5q63 0 145 -29v35q0 42 -31.5 71.5t-88.5 29.5q-67 0 -115 -45l-162 26q69 139 308 139q163 0 226.5 -60.5t63.5 -146.5v-255h101zM474 1031q-75 43 -116 43 q-35 0 -63 -18.5t-28 -54.5q0 -31 22.5 -54t59.5 -23q55 0 125 60v47z" />
<glyph unicode="&#xab;" horiz-adv-x="1110" d="M243 0l-231 484l231 484h296l-225 -484l225 -484h-296zM805 0l-232 484l232 484h295l-225 -484l225 -484h-295z" />
<glyph unicode="&#xac;" horiz-adv-x="1368" d="M122 1064h1124v-731h-248v483h-876v248z" />
<glyph unicode="&#xad;" horiz-adv-x="682" d="M0 599h802v-56h-736v-43h736v-148h-801z" />
<glyph unicode="&#xae;" horiz-adv-x="1516" d="M1524 647q0 -317 -225.5 -541.5t-540.5 -224.5q-317 0 -541.5 224t-224.5 542q0 317 224 541.5t542 224.5q315 0 540.5 -225t225.5 -541zM1373 647q0 254 -181 434.5t-434 180.5q-254 0 -434.5 -181t-180.5 -434q0 -254 181 -435t434 -181t434 180.5t181 435.5zM1137 237 h-204l-68 131q-65 125 -112 164t-128 39h-31v-334h-165v813h289q148 0 210.5 -13t110.5 -72.5t48 -145.5q0 -87 -58.5 -150t-160.5 -76q52 -20 80.5 -51.5t92.5 -141.5zM594 700h67q118 0 157 5.5t67 34.5t28 72q0 42 -29.5 71t-71.5 33.5t-152 4.5h-66v-221z" />
<glyph unicode="&#xaf;" horiz-adv-x="1024" d="M-12 1647h1048v-102h-1048v102z" />
<glyph unicode="&#xb0;" horiz-adv-x="811" d="M406 1415q140 0 243 -99t103 -247q0 -142 -101.5 -244t-244.5 -102q-144 0 -245 101.5t-101 244.5q0 148 103 247t243 99zM406 1284q-88 0 -151.5 -63t-63.5 -152q0 -88 63 -151t152 -63t152 63t63 151q0 89 -63.5 152t-151.5 63z" />
<glyph unicode="&#xb1;" horiz-adv-x="1368" d="M122 1007h438v438h248v-438h438v-248h-438v-438h-248v438h-438v248zM122 200h1124v-248h-1124v248z" />
<glyph unicode="&#xb2;" horiz-adv-x="682" d="M608 899l-7 -219h-549q-2 29 -2 50q0 61 35.5 137.5t158.5 173.5q91 73 119 106.5t28 75.5q0 68 -67 68q-80 0 -86 -149l-176 7q2 88 26 142t90.5 89t160.5 35q122 0 192.5 -58.5t70.5 -143.5q0 -69 -39.5 -114.5t-150.5 -114.5q-107 -66 -135.5 -104t-38.5 -72h214v91 h156z" />
<glyph unicode="&#xb3;" horiz-adv-x="682" d="M46 909l183 13q1 -126 96 -126q41 0 68.5 27.5t27.5 73.5q0 99 -106 99q-15 0 -48 -2v133q134 0 134 87q0 73 -75 73q-76 0 -76 -94l-178 12q3 102 76.5 156t191.5 54q123 0 193 -53.5t70 -139.5q0 -109 -114 -160q144 -47 144 -172q0 -94 -77.5 -156.5t-216.5 -62.5 q-270 0 -293 238z" />
<glyph unicode="&#xb4;" horiz-adv-x="682" d="M187 1095l152 318h376l-364 -318h-164z" />
<glyph unicode="&#xb5;" horiz-adv-x="1260" d="M150 968h279v-387q0 -208 47.5 -294t150.5 -86q69 0 121.5 47.5t68 118t15.5 211.5v390h284v-968h-262v128q-80 -154 -219 -154q-66 0 -113.5 35t-92.5 119v-562h-279v1402z" />
<glyph unicode="&#xb6;" horiz-adv-x="1130" d="M633 -434h-240v1003q-193 13 -293.5 124t-100.5 281q0 114 44.5 204t117 137t142 61.5t230.5 14.5h597v-261h-113v-1564h-240v1564h-144v-1564z" />
<glyph unicode="&#xb8;" horiz-adv-x="682" d="M346 23l-27 -106q171 -49 171 -180q0 -85 -75.5 -140t-302.5 -55q-34 0 -75 2v101q138 3 170.5 18.5t32.5 47.5q0 67 -120 71l56 241h170z" />
<glyph unicode="&#xb9;" horiz-adv-x="682" d="M136 680v127h114v469h-121v127h325v-596h108v-127h-426z" />
<glyph unicode="&#xba;" horiz-adv-x="768" d="M384 805q-147 0 -239 84.5t-92 219.5q0 140 95 222t236 82q140 0 235.5 -81.5t95.5 -222.5q0 -135 -92 -219.5t-239 -84.5zM383 948q126 0 126 162q0 160 -126 160q-124 0 -124 -161t124 -161z" />
<glyph unicode="&#xbb;" horiz-adv-x="1110" d="M306 0h-295l225 484l-225 484h295l232 -484zM865 0h-295l225 484l-225 484h295l232 -484z" />
<glyph unicode="&#xbc;" horiz-adv-x="1898" d="M192 680v127h114v469h-121v127h325v-596h108v-127h-426zM324 0l1007 1391h179l-1007 -1391h-179zM1697 117v-117h-354v117h91v78h-299q-23 61 -47 98l358 442h182v-430h79v-110h-79v-78h69zM1434 305v211l-174 -211h174z" />
<glyph unicode="&#xbd;" horiz-adv-x="1898" d="M194 680v127h114v469h-121v127h325v-596h108v-127h-426zM326 0l1007 1391h179l-1007 -1391h-179zM1697 219l-8 -219h-549q-1 29 -1 50q0 88 48.5 161t144.5 150q92 72 119.5 105.5t27.5 75.5q0 69 -66 69q-82 0 -86 -150l-176 8q2 88 26 142t90.5 89t159.5 35 q123 0 193.5 -58.5t70.5 -144.5q0 -68 -39.5 -113.5t-150.5 -114.5q-107 -67 -136 -104.5t-38 -72.5h214v92h156z" />
<glyph unicode="&#xbe;" horiz-adv-x="1898" d="M113 909l183 13q1 -126 96 -126q41 0 68.5 27.5t27.5 73.5q0 99 -106 99q-15 0 -48 -2v133q134 0 134 87q0 73 -75 73q-76 0 -76 -94l-178 12q3 102 76.5 156t191.5 54q123 0 193 -53.5t70 -139.5q0 -109 -114 -160q144 -47 144 -172q0 -94 -77.5 -156.5t-216.5 -62.5 q-270 0 -293 238zM323 0l1007 1391h179l-1007 -1391h-179zM1696 117v-117h-354v117h91v78h-299q-23 61 -47 98l358 442h181v-430h80v-110h-80v-78h70zM1433 305v211l-174 -211h174z" />
<glyph unicode="&#xbf;" horiz-adv-x="1153" d="M798 982v-335h-335v335h335zM557 501h144l28 -368q-50 18 -104 18q-88 0 -151 -48t-63 -137q0 -80 52.5 -132t136.5 -52q89 0 133 47t44 119q0 19 -4 42h308q0 -209 -142.5 -316t-357.5 -107q-240 0 -364.5 116.5t-124.5 291.5q0 172 111.5 277t275.5 105q15 0 46 -2z " />
<glyph unicode="&#xc0;" horiz-adv-x="1430" d="M1190 119v-119h-1195v119h1195zM61 198h1070l7 107l-526 1103h-40l-511 -1118v-92zM610 1524h-165l-363 318h375z" />
<glyph unicode="&#xc1;" horiz-adv-x="1430" d="M1190 119v-119h-1195v119h1195zM61 198h1070l7 107l-526 1103h-40l-511 -1118v-92zM411 1524l152 318h376l-364 -318h-164z" />
<glyph unicode="&#xc2;" horiz-adv-x="1430" d="M1190 119v-119h-1195v119h1195zM61 198h1070l7 107l-526 1103h-40l-511 -1118v-92zM361 1858h300l243 -368h-175l-218 218l-218 -218h-175z" />
<glyph unicode="&#xc3;" horiz-adv-x="1430" d="M1190 119v-119h-1195v119h1195zM61 198h1070l7 107l-526 1103h-40l-511 -1118v-92zM760 1858h142v-24q0 -118 -63 -209t-169 -91q-39 0 -69.5 11.5t-112.5 52.5q-100 51 -137 51q-77 0 -81 -108h-150q0 151 69 236t159 85q61 0 153 -47q135 -70 172 -70q33 0 59 32.5 t28 80.5z" />
<glyph unicode="&#xc4;" horiz-adv-x="1430" d="M1190 119v-119h-1195v119h1195zM61 198h1070l7 107l-526 1103h-40l-511 -1118v-92zM743 1992h207v-391h-106l-112 112v173h143v39h-146zM280 1885l1 -157l127 -127h68v285zM509 1986l-47 -56h-189v56h236z" />
<glyph unicode="&#xc5;" horiz-adv-x="1430" d="M622 1391q-84 30 -135 102.5t-51 159.5q0 114 81.5 195.5t196.5 81.5q114 0 195.5 -81.5t81.5 -195.5q0 -86 -50 -158t-138 -104h358v-235h-187l292 -921h166v-235h-684v235h178l-66 239h-361l-74 -239h186v-235h-616v235h172l271 921h-185v235h369zM870 1653 q0 63 -45 110t-111 47q-65 0 -111 -46.5t-46 -110.5q0 -65 46 -111t111 -46q64 0 110 46t46 111zM803 678l-116 419l-125 -419h241z" />
<glyph unicode="&#xc6;" horiz-adv-x="2028" d="M-5 0v235h146l399 921h-208v235h1623v-440h-266v205h-417v-318h337v-236h-337v-367h417v212h266v-447h-1203v235h158v367h-335l-163 -367h163v-235h-580zM910 806v372h-91l-157 -372h248z" />
<glyph unicode="&#xc7;" horiz-adv-x="1599" d="M924 -14l-10 -55q85 -12 134.5 -64.5t49.5 -118.5q0 -83 -76 -143.5t-312 -60.5q-38 0 -94 2v102q211 0 211 81q0 62 -120 70l37 190q-307 25 -475 223t-168 484q0 323 206.5 520t526.5 197q254 0 417 -130v108h235v-490h-235q-100 264 -347 264q-204 0 -308.5 -139 t-104.5 -333q0 -203 110.5 -328.5t281.5 -125.5q140 0 245 95t142 264l274 -131q-133 -443 -620 -481z" />
<glyph unicode="&#xc8;" horiz-adv-x="1366" d="M71 1167l236 234h946v-310h-852l-60 -60v-1031h-273zM460 718l120 119h290v-300h-299l-111 110v71zM401 290h862l-291 -290h-460v236h-60v-236h-51v290zM719 1524h-165l-363 318h375z" />
<glyph unicode="&#xc9;" horiz-adv-x="1366" d="M71 1167l236 234h946v-310h-852l-60 -60v-1031h-273zM460 718l120 119h290v-300h-299l-111 110v71zM401 290h862l-291 -290h-460v236h-60v-236h-51v290zM400 1524l152 318h376l-364 -318h-164z" />
<glyph unicode="&#xca;" horiz-adv-x="1366" d="M71 1167l236 234h946v-310h-852l-60 -60v-1031h-273zM460 718l120 119h290v-300h-299l-111 110v71zM401 290h862l-291 -290h-460v236h-60v-236h-51v290zM398 1858h300l243 -368h-175l-218 218l-218 -218h-175z" />
<glyph unicode="&#xcb;" horiz-adv-x="1366" d="M71 1167l236 234h946v-310h-852l-60 -60v-1031h-273zM460 718l120 119h290v-300h-299l-111 110v71zM401 290h862l-291 -290h-460v236h-60v-236h-51v290zM798 1950h207v-391h-106l-112 112v173h143v39h-146zM335 1843l1 -157l127 -127h68v285zM564 1944l-47 -56h-189v56 h236z" />
<glyph unicode="&#xcc;" horiz-adv-x="874" d="M210 1401h382v-1394h-55v1322h-49v-1322h-56l-222 244v1150zM550 1524h-165l-363 318h375z" />
<glyph unicode="&#xcd;" horiz-adv-x="874" d="M45 1401h382v-1394h-55v1322h-49v-1322h-56l-222 244v1150zM174 1524l152 318h376l-364 -318h-164z" />
<glyph unicode="&#xce;" horiz-adv-x="874" d="M210 1401h382v-1394h-55v1322h-49v-1322h-56l-222 244v1150zM281 1858h300l243 -368h-175l-218 218l-218 -218h-175z" />
<glyph unicode="&#xcf;" horiz-adv-x="874" d="M167 1401h382v-1394h-55v1322h-49v-1322h-56l-222 244v1150zM499 1935h207v-391h-106l-112 112v173h143v39h-146zM36 1828l1 -157l127 -127h68v285zM265 1929l-47 -56h-189v56h236z" />
<glyph unicode="&#xd0;" horiz-adv-x="1642" d="M259 602h-211v187h211v367h-211v235h659q208 0 335 -25.5t243 -113t186 -234.5t70 -326q0 -145 -49 -276.5t-121.5 -212t-173.5 -128t-185.5 -61.5t-261.5 -14h-702v235h211v367zM620 602v-367h87q158 0 250.5 41t148.5 144.5t56 270.5q0 159 -56.5 270t-153 153 t-245.5 42h-87v-367h258v-187h-258z" />
<glyph unicode="&#xd1;" horiz-adv-x="1622" d="M55 1401v-1402h280v1157l-229 245h-51zM454 1401v-300h451v-983l110 -119h230v847h-230v-655h-51v918h51v-190h230v237l-230 245h-561zM926 1858h142v-24q0 -118 -63 -209t-169 -91q-39 0 -69.5 11.5t-112.5 52.5q-100 51 -137 51q-77 0 -81 -108h-150q0 151 69 236 t159 85q61 0 153 -47q135 -70 172 -70q33 0 59 32.5t28 80.5z" />
<glyph unicode="&#xd2;" horiz-adv-x="1749" d="M101 430h281v595h82v-489h50v575h455l75 -93v-608l-63 -99h-467v139l-50 1l-1 -101l-81 7v80h-281v-199l218 -231h782l199 212v931l-237 258h-719l-243 -258v-720zM872 1524h-165l-363 318h375z" />
<glyph unicode="&#xd3;" horiz-adv-x="1749" d="M101 430h281v595h82v-489h50v575h455l75 -93v-608l-63 -99h-467v139l-50 1l-1 -101l-81 7v80h-281v-199l218 -231h782l199 212v931l-237 258h-719l-243 -258v-720zM674 1524l152 318h376l-364 -318h-164z" />
<glyph unicode="&#xd4;" horiz-adv-x="1749" d="M101 430h281v595h82v-489h50v575h455l75 -93v-608l-63 -99h-467v139l-50 1l-1 -101l-81 7v80h-281v-199l218 -231h782l199 212v931l-237 258h-719l-243 -258v-720zM623 1858h300l243 -368h-175l-218 218l-218 -218h-175z" />
<glyph unicode="&#xd5;" horiz-adv-x="1749" d="M101 430h281v595h82v-489h50v575h455l75 -93v-608l-63 -99h-467v139l-50 1l-1 -101l-81 7v80h-281v-199l218 -231h782l199 212v931l-237 258h-719l-243 -258v-720zM1022 1858h142v-24q0 -118 -63 -209t-169 -91q-39 0 -69.5 11.5t-112.5 52.5q-100 51 -137 51 q-77 0 -81 -108h-150q0 151 69 236t159 85q61 0 153 -47q135 -70 172 -70q33 0 59 32.5t28 80.5z" />
<glyph unicode="&#xd6;" horiz-adv-x="1749" d="M101 430h281v595h82v-489h50v575h455l75 -93v-608l-63 -99h-467v139l-50 1l-1 -101l-81 7v80h-281v-199l218 -231h782l199 212v931l-237 258h-719l-243 -258v-720zM903 1999h207v-391h-106l-112 112v173h143v39h-146zM440 1892l1 -157l127 -127h68v285zM669 1993l-47 -56 h-189v56h236z" />
<glyph unicode="&#xd7;" horiz-adv-x="1368" d="M325 1233l359 -359l359 359l176 -175l-359 -359l359 -360l-176 -175l-359 359l-359 -359l-176 175l359 360l-359 359z" />
<glyph unicode="&#xd8;" horiz-adv-x="1749" d="M1313 1304l121 138l112 -86l-120 -137q221 -209 221 -521q0 -300 -207 -507.5t-566 -207.5q-262 0 -437 107l-136 -155l-116 77l141 161q-225 207 -225 526q0 299 207 506.5t566 207.5q263 0 439 -109zM1111 1073q-101 86 -237 86q-163 0 -273 -122t-110 -336 q0 -159 59 -271zM1201 962l-562 -641q104 -85 235 -85q160 0 272 121t112 344q0 152 -57 261z" />
<glyph unicode="&#xd9;" horiz-adv-x="1386" d="M37 1402h317v-1134l-245 -268h-72v1402zM952 1408h276v-1192l-192 -210h-634v171h514v46h-514v78h514l36 46v1061zM666 1524h-165l-363 318h375z" />
<glyph unicode="&#xda;" horiz-adv-x="1386" d="M37 1402h317v-1134l-245 -268h-72v1402zM952 1408h276v-1192l-192 -210h-634v171h514v46h-514v78h514l36 46v1061zM432 1524l152 318h376l-364 -318h-164z" />
<glyph unicode="&#xdb;" horiz-adv-x="1386" d="M37 1402h317v-1134l-245 -268h-72v1402zM952 1408h276v-1192l-192 -210h-634v171h514v46h-514v78h514l36 46v1061zM381 1858h300l243 -368h-175l-218 218l-218 -218h-175z" />
<glyph unicode="&#xdc;" horiz-adv-x="1386" d="M37 1402h317v-1134l-245 -268h-72v1402zM952 1408h276v-1192l-192 -210h-634v171h514v46h-514v78h514l36 46v1061zM660 1999h207v-391h-106l-112 112v173h143v39h-146zM197 1892l1 -157l127 -127h68v285zM426 1993l-47 -56h-189v56h236z" />
<glyph unicode="&#xdd;" horiz-adv-x="1430" d="M-5 1391h290v-672h-60l-230 245v427zM336 0v1028h509l44 45l-2 328h78l221 -236v-210l-221 -236h-349v-719h-59v719h-60v-719h-161zM401 1524l152 318h376l-364 -318h-164z" />
<glyph unicode="&#xde;" horiz-adv-x="1366" d="M794 235v-235h-733v235h177v921h-177v235h733v-235h-194v-76h194q272 0 403.5 -112.5t131.5 -272.5q0 -147 -119.5 -265.5t-476.5 -118.5h-133v-76h194zM600 532h54q180 0 235.5 46.5t55.5 118.5q0 58 -36.5 100t-85.5 52t-155 10h-68v-327z" />
<glyph unicode="&#xdf;" horiz-adv-x="1323" d="M200 192h-10v-48h10v48zM459 1198v1h-259v-1180h37v900h40v-1063h-40v107h-37v-167h259v1119h-6v283h6zM453 1198h439l176 -194v-337l131 -139v-527h-603v242h384v234l-384 3v239h208v146l-47 92h-304v241z" />
<glyph unicode="&#xe0;" horiz-adv-x="1194" d="M1084 101v-101h-1001v101h1001zM138 169h897l5 91l-440 939h-34l-428 -952v-78zM835 1276h-165l-363 318h375z" />
<glyph unicode="&#xe1;" horiz-adv-x="1194" d="M1084 101v-101h-1001v101h1001zM138 169h897l5 91l-440 939h-34l-428 -952v-78zM329 1260l152 318h376l-364 -318h-164z" />
<glyph unicode="&#xe2;" horiz-adv-x="1194" d="M1117 101v-101h-1001v101h1001zM171 169h897l5 91l-440 939h-34l-428 -952v-78zM460 1602h300l243 -368h-175l-218 218l-218 -218h-175z" />
<glyph unicode="&#xe3;" horiz-adv-x="1194" d="M1103 101v-101h-1001v101h1001zM157 169h897l5 91l-440 939h-34l-428 -952v-78zM864 1570h142v-24q0 -118 -63 -209t-169 -91q-39 0 -69.5 11.5t-112.5 52.5q-100 51 -137 51q-77 0 -81 -108h-150q0 151 69 236t159 85q61 0 153 -47q135 -70 172 -70q33 0 59 32.5 t28 80.5z" />
<glyph unicode="&#xe4;" horiz-adv-x="1194" d="M1096 101v-101h-1001v101h1001zM150 169h897l5 91l-440 939h-34l-428 -952v-78zM750 1691h207v-391h-106l-112 112v173h143v39h-146zM287 1584l1 -157l127 -127h68v285zM516 1685l-47 -56h-189v56h236z" />
<glyph unicode="&#xe5;" horiz-adv-x="1194" d="M1084 101v-101h-1001v101h1001zM138 169h897l5 91l-440 939h-34l-428 -952v-78zM800 1410q0 -85 -60.5 -148t-150.5 -63q-87 0 -149 61.5t-62 149.5q0 87 61.5 149t149.5 62q87 0 149 -62t62 -149zM698 1410q0 43 -31 75.5t-78 32.5q-45 0 -76.5 -32t-31.5 -76 q0 -45 31.5 -77t76.5 -32t77 32t32 77z" />
<glyph unicode="&#xe6;" horiz-adv-x="1812" d="M1492 297l240 -74q-68 -118 -197.5 -181.5t-278.5 -63.5q-161 0 -269.5 62t-166.5 141q-201 -203 -390 -203q-140 0 -243 85t-103 227q0 151 111.5 238.5t278.5 87.5q128 0 251 -48q1 19 1 34q0 89 -58 139t-146 50q-100 0 -194 -72l-245 46q117 227 489 227 q229 0 363 -96q120 96 291 96q259 0 390 -154t131 -379q0 -12 -1 -35h-710q6 -103 70 -170.5t158 -67.5q116 0 228 111zM1433 595q-15 85 -69 137t-137 52q-78 0 -130 -52.5t-61 -136.5h397zM725 359q-117 73 -194 73q-59 0 -106 -37.5t-47 -98.5q0 -52 36 -84.5t82 -32.5 q101 0 229 108v72z" />
<glyph unicode="&#xe7;" horiz-adv-x="1153" d="M668 -21l-15 -62q171 -49 171 -180q0 -96 -85 -145.5t-293 -49.5q-32 0 -75 2v101q138 3 170.5 18.5t32.5 47.5q0 65 -120 71l49 208q-211 39 -318 173.5t-107 321.5q0 231 147.5 364.5t343.5 133.5q157 0 293 -95v80h211v-393h-220q-75 162 -235 162 q-102 0 -162.5 -67.5t-60.5 -180.5q0 -137 64 -202.5t157 -65.5q74 0 140 42.5t106 112.5l240 -106q-127 -278 -434 -291z" />
<glyph unicode="&#xe8;" horiz-adv-x="1174" d="M81 999l198 200h796v-265h-717l-50 -52v-882h-230zM408 615l100 101h244v-256h-251l-93 94v61zM358 249h725l-245 -249h-387v202h-50v-202h-43v249zM828 1269h-165l-363 318h375z" />
<glyph unicode="&#xe9;" horiz-adv-x="1174" d="M81 999l198 200h796v-265h-717l-50 -52v-882h-230zM408 615l100 101h244v-256h-251l-93 94v61zM358 249h725l-245 -249h-387v202h-50v-202h-43v249zM330 1276l152 318h376l-364 -318h-164z" />
<glyph unicode="&#xea;" horiz-adv-x="1174" d="M83 999l198 200h796v-265h-717l-50 -52v-882h-230zM410 615l100 101h244v-256h-251l-93 94v61zM360 249h725l-245 -249h-387v202h-50v-202h-43v249zM518 1634h300l243 -368h-175l-218 218l-218 -218h-175z" />
<glyph unicode="&#xeb;" horiz-adv-x="1174" d="M81 999l198 200h796v-265h-717l-50 -52v-882h-230zM408 615l100 101h244v-256h-251l-93 94v61zM358 249h725l-245 -249h-387v202h-50v-202h-43v249zM700 1802h207v-391h-106l-112 112v173h143v39h-146zM237 1695l1 -157l127 -127h68v285zM466 1796l-47 -56h-189v56h236z " />
<glyph unicode="&#xec;" horiz-adv-x="725" d="M210 1000h284v-993h-41v941h-36v-941h-42l-165 174v819zM540 1095h-165l-363 318h375z" />
<glyph unicode="&#xed;" horiz-adv-x="725" d="M134 1000h284v-993h-41v941h-36v-941h-42l-165 174v819zM86 1095l152 318h376l-364 -318h-164z" />
<glyph unicode="&#xee;" horiz-adv-x="725" d="M210 1000h284v-993h-41v941h-36v-941h-42l-165 174v819zM213 1437h300l243 -368h-175l-218 218l-218 -218h-175z" />
<glyph unicode="&#xef;" horiz-adv-x="725" d="M179 1000h284v-993h-41v941h-36v-941h-42l-165 174v819zM460 1597h207v-391h-106l-112 112v173h143v39h-146zM-3 1490l1 -157l127 -127h68v285zM226 1591l-47 -56h-189v56h236z" />
<glyph unicode="&#xf0;" horiz-adv-x="1174" d="M320 1415h305q35 -28 63 -54l177 54l40 -120l-115 -37q149 -158 230 -353.5t81 -373.5q0 -213 -133 -383t-399 -170q-137 0 -242.5 55.5t-179.5 172.5t-74 275q0 226 135 368.5t323 142.5q97 0 178 -47q-69 130 -160 237l-248 -80l-39 119l198 67q-49 57 -140 127z M591 753q-85 0 -143.5 -69.5t-58.5 -200.5q0 -119 48 -192t142 -73q93 0 150.5 74t57.5 209q0 119 -56 185.5t-140 66.5z" />
<glyph unicode="&#xf1;" horiz-adv-x="1280" d="M73 1199v-1200h231v990l-189 210h-42zM402 1199v-257h371v-841l91 -102h190v725h-190v-561h-42v786h42v-163h190v203l-190 210h-462zM782 1617h142v-24q0 -118 -63 -209t-169 -91q-39 0 -69.5 11.5t-112.5 52.5q-100 51 -137 51q-77 0 -81 -108h-150q0 151 69 236t159 85 q61 0 153 -47q135 -70 172 -70q33 0 59 32.5t28 80.5z" />
<glyph unicode="&#xf2;" horiz-adv-x="1174" d="M78 367h234v506h68v-416h41v489h379l62 -79v-517l-52 -84h-389v118l-41 1l-1 -86l-67 6v68h-234v-169l182 -197h649l166 180v793l-197 219h-598l-202 -219v-613zM783 1276h-165l-363 318h375z" />
<glyph unicode="&#xf3;" horiz-adv-x="1174" d="M78 367h234v506h68v-416h41v489h379l62 -79v-517l-52 -84h-389v118l-41 1l-1 -86l-67 6v68h-234v-169l182 -197h649l166 180v793l-197 219h-598l-202 -219v-613zM309 1316l152 318h376l-364 -318h-164z" />
<glyph unicode="&#xf4;" horiz-adv-x="1174" d="M86 367h234v506h68v-416h41v489h379l62 -79v-517l-52 -84h-389v118l-41 1l-1 -86l-67 6v68h-234v-169l182 -197h649l166 180v793l-197 219h-598l-202 -219v-613zM447 1641h300l243 -368h-175l-218 218l-218 -218h-175z" />
<glyph unicode="&#xf5;" horiz-adv-x="1174" d="M84 367h234v506h68v-416h41v489h379l62 -79v-517l-52 -84h-389v118l-41 1l-1 -86l-67 6v68h-234v-169l182 -197h649l166 180v793l-197 219h-598l-202 -219v-613zM844 1663h142v-24q0 -118 -63 -209t-169 -91q-39 0 -69.5 11.5t-112.5 52.5q-100 51 -137 51 q-77 0 -81 -108h-150q0 151 69 236t159 85q61 0 153 -47q135 -70 172 -70q33 0 59 32.5t28 80.5z" />
<glyph unicode="&#xf6;" horiz-adv-x="1174" d="M78 367h234v506h68v-416h41v489h379l62 -79v-517l-52 -84h-389v118l-41 1l-1 -86l-67 6v68h-234v-169l182 -197h649l166 180v793l-197 219h-598l-202 -219v-613zM741 1802h207v-391h-106l-112 112v173h143v39h-146zM278 1695l1 -157l127 -127h68v285zM507 1796l-47 -56 h-189v56h236z" />
<glyph unicode="&#xf7;" horiz-adv-x="1368" d="M684 1263q60 0 103 -42.5t43 -103.5q0 -60 -42.5 -102.5t-103.5 -42.5q-60 0 -102.5 42t-42.5 103q0 63 43.5 104.5t101.5 41.5zM122 816h1124v-235h-1124v235zM684 426q59 0 102.5 -41.5t43.5 -104.5q0 -61 -43 -103.5t-103 -42.5q-59 0 -102 42.5t-43 103.5 q0 63 43.5 104.5t101.5 41.5z" />
<glyph unicode="&#xf8;" horiz-adv-x="1174" d="M971 835q125 -131 125 -350q0 -234 -145.5 -370.5t-363.5 -136.5q-158 0 -285 77l-122 -142l-95 78l121 142q-128 131 -128 343q0 244 146 380t363 136q164 0 287 -78l122 143l94 -83zM409 370l292 343q-49 41 -115 41q-89 0 -140 -69.5t-51 -194.5q0 -61 14 -120z M767 597l-292 -341q46 -38 111 -38q89 0 141 68t52 195q0 63 -12 116z" />
<glyph unicode="&#xf9;" horiz-adv-x="1280" d="M39 1194h267v-965l-206 -229h-61v1194zM811 1199h232v-1015l-162 -179h-534v145h433v40h-433v66h433l31 40v903zM768 1284h-165l-363 318h375z" />
<glyph unicode="&#xfa;" horiz-adv-x="1280" d="M39 1194h267v-965l-206 -229h-61v1194zM811 1199h232v-1015l-162 -179h-534v145h433v40h-433v66h433l31 40v903zM318 1308l152 318h376l-364 -318h-164z" />
<glyph unicode="&#xfb;" horiz-adv-x="1280" d="M39 1194h267v-965l-206 -229h-61v1194zM811 1199h232v-1015l-162 -179h-534v145h433v40h-433v66h433l31 40v903zM431 1775h300l243 -368h-175l-218 218l-218 -218h-175z" />
<glyph unicode="&#xfc;" horiz-adv-x="1280" d="M39 1194h267v-965l-206 -229h-61v1194zM811 1199h232v-1015l-162 -179h-534v145h433v40h-433v66h433l31 40v903zM696 1849h207v-391h-106l-112 112v173h143v39h-146zM233 1742l1 -157l127 -127h68v285zM462 1843l-47 -56h-189v56h236z" />
<glyph unicode="&#xfd;" horiz-adv-x="1217" d="M11 1183h240v-572h-49l-191 208v364zM294 0v874h423l36 38l-1 279h64l184 -200v-179l-184 -201h-289v-611h-49v611h-50v-611h-134zM319 1292l152 318h376l-364 -318h-164z" />
<glyph unicode="&#xfe;" horiz-adv-x="1280" d="M699 -214v-223h-666v223h163v1382h-136v223h445v-544q129 136 288 136q192 0 302.5 -152.5t110.5 -355.5q0 -215 -114 -356t-304 -141q-155 0 -283 121v-313h194zM889 481q0 127 -52.5 190t-138.5 63q-87 0 -141.5 -64.5t-54.5 -192.5q0 -115 54 -185t144 -70 q83 0 136 63t53 196z" />
<glyph unicode="&#xff;" horiz-adv-x="1217" d="M11 1183h240v-572h-49l-191 208v364zM294 0v874h423l36 38l-1 279h64l184 -200v-179l-184 -201h-289v-611h-49v611h-50v-611h-134zM532 1597h207v-391h-106l-112 112v173h143v39h-146zM69 1490l1 -157l127 -127h68v285zM298 1591l-47 -56h-189v56h236z" />
<glyph unicode="&#x131;" horiz-adv-x="725" d="M210 1000h284v-993h-41v941h-36v-941h-42l-165 174v819z" />
<glyph unicode="&#x152;" horiz-adv-x="2068" d="M1995 444v-444h-1075q-182 0 -269.5 12t-197.5 63.5t-192.5 143t-122.5 209t-40 260.5q0 205 74.5 358t176 224.5t233.5 96t378 24.5h1035v-444h-265v209h-401v-322h322v-235h-322v-364h401v209h265zM967 1156q-165 0 -231 -12.5t-130 -70.5t-97 -152t-33 -223 q0 -178 71 -289t152 -140t268 -34v921z" />
<glyph unicode="&#x153;" horiz-adv-x="2068" d="M1745 296l241 -73q-46 -102 -177.5 -173.5t-320.5 -71.5q-283 0 -429 139q-173 -139 -423 -139q-263 0 -410.5 148t-147.5 355q0 212 150 361.5t413 149.5q236 0 418 -145q140 145 390 145q240 0 395 -156.5t155 -365.5q0 -16 -1 -48h-785q8 -108 85.5 -171.5 t189.5 -63.5q169 0 257 109zM1686 593q-20 91 -86.5 141.5t-152.5 50.5q-87 0 -152 -55t-73 -137h464zM894 492q0 127 -70.5 209.5t-176.5 82.5q-109 0 -180.5 -86t-71.5 -209q0 -119 67.5 -212.5t184.5 -93.5q118 0 182.5 92t64.5 217z" />
<glyph unicode="&#x178;" horiz-adv-x="1430" d="M-5 1391h290v-672h-60l-230 245v427zM336 0v1028h509l44 45l-2 328h78l221 -236v-210l-221 -236h-349v-719h-59v719h-60v-719h-161zM629 1999h207v-391h-106l-112 112v173h143v39h-146zM166 1892l1 -157l127 -127h68v285zM395 1993l-47 -56h-189v56h236z" />
<glyph unicode="&#x2c6;" horiz-adv-x="682" d="M191 1437h300l243 -368h-175l-218 218l-218 -218h-175z" />
<glyph unicode="&#x2da;" horiz-adv-x="682" d="M552 1267q0 -85 -60.5 -148t-150.5 -63q-87 0 -149 61.5t-62 149.5q0 87 61.5 149t149.5 62q87 0 149 -62t62 -149zM450 1267q0 43 -31 75.5t-78 32.5q-45 0 -76.5 -32t-31.5 -76q0 -45 31.5 -77t76.5 -32t77 32t32 77z" />
<glyph unicode="&#x2dc;" horiz-adv-x="682" d="M590 1404h142v-24q0 -118 -63 -209t-169 -91q-39 0 -69.5 11.5t-112.5 52.5q-100 51 -137 51q-77 0 -81 -108h-150q0 151 69 236t159 85q61 0 153 -47q135 -70 172 -70q33 0 59 32.5t28 80.5z" />
<glyph unicode="&#x2000;" horiz-adv-x="999" />
<glyph unicode="&#x2001;" horiz-adv-x="1999" />
<glyph unicode="&#x2002;" horiz-adv-x="999" />
<glyph unicode="&#x2003;" horiz-adv-x="1999" />
<glyph unicode="&#x2004;" horiz-adv-x="666" />
<glyph unicode="&#x2005;" horiz-adv-x="499" />
<glyph unicode="&#x2006;" horiz-adv-x="333" />
<glyph unicode="&#x2007;" horiz-adv-x="333" />
<glyph unicode="&#x2008;" horiz-adv-x="249" />
<glyph unicode="&#x2009;" horiz-adv-x="399" />
<glyph unicode="&#x200a;" horiz-adv-x="111" />
<glyph unicode="&#x2010;" horiz-adv-x="682" d="M0 599h802v-56h-736v-43h736v-148h-801z" />
<glyph unicode="&#x2011;" horiz-adv-x="682" d="M0 599h802v-56h-736v-43h736v-148h-801z" />
<glyph unicode="&#x2013;" horiz-adv-x="1024" d="M-12 637h1048v-250h-1048v250z" />
<glyph unicode="&#x2014;" horiz-adv-x="2048" d="M-12 637h2072v-250h-2072v250z" />
<glyph unicode="&#x2018;" horiz-adv-x="725" d="M530 1391v-154q-164 -17 -164 -198v-18h164v-335h-334v311q0 239 88.5 316.5t245.5 77.5z" />
<glyph unicode="&#x2019;" horiz-adv-x="725" d="M196 686v151q164 16 164 197v19h-164v338h334v-314q0 -145 -30.5 -226.5t-108 -123t-195.5 -41.5z" />
<glyph unicode="&#x201a;" horiz-adv-x="725" d="M196 -370v151q164 16 164 197v18h-164v339h334v-314q0 -238 -89 -314.5t-245 -76.5z" />
<glyph unicode="&#x201c;" horiz-adv-x="1217" d="M520 1391v-154q-164 -17 -164 -198v-18h164v-335h-334v311q0 239 88.5 316.5t245.5 77.5zM1032 1391v-154q-164 -17 -164 -198v-18h164v-335h-334v311q0 239 88.5 316.5t245.5 77.5z" />
<glyph unicode="&#x201d;" horiz-adv-x="1217" d="M187 690v151q164 16 164 197v18h-164v335h334v-310q0 -177 -41 -251t-113 -107t-180 -33zM693 690v151q164 16 164 197v18h-164v335h334v-310q0 -238 -89 -314.5t-245 -76.5z" />
<glyph unicode="&#x201e;" horiz-adv-x="1217" d="M188 -366v150q164 17 164 198v18h-164v335h334v-311q0 -144 -30.5 -226t-108 -123t-195.5 -41zM691 -366v150q165 17 165 198v18h-165v335h334v-311q0 -238 -88.5 -314t-245.5 -76z" />
<glyph unicode="&#x2022;" horiz-adv-x="725" d="M363 981q115 0 200 -81t85 -204q0 -118 -83.5 -202t-201.5 -84q-119 0 -202.5 83.5t-83.5 202.5q0 118 84 201.5t202 83.5z" />
<glyph unicode="&#x2026;" horiz-adv-x="2048" d="M174 0v335h335v-335h-335zM857 0v335h335v-335h-335zM1540 0v335h335v-335h-335z" />
<glyph unicode="&#x202f;" horiz-adv-x="399" />
<glyph unicode="&#x2039;" horiz-adv-x="555" d="M241 0l-231 484l231 484h296l-225 -484l225 -484h-296z" />
<glyph unicode="&#x203a;" horiz-adv-x="555" d="M313 0h-295l225 484l-225 484h295l232 -484z" />
<glyph unicode="&#x205f;" horiz-adv-x="499" />
<glyph unicode="&#x20ac;" horiz-adv-x="1130" d="M1049 377q-34 -184 -137 -289.5t-326 -105.5q-388 0 -463 493h-119v160h105v127h-105v160h121q42 237 158.5 365t285.5 128q87 0 145 -26t117 -86v88h181v-404h-176q-34 104 -80.5 153.5t-137.5 49.5q-84 0 -128 -64t-58 -204h285v-160h-291v-127h291v-160h-283 q26 -268 172 -268q95 0 146 53.5t67 169.5z" />
<glyph unicode="&#x2122;" horiz-adv-x="2048" d="M401 572v677h-253v142h665v-142h-246v-677h-166zM912 572v819h259l149 -564l150 564h259v-819h-158v653l-177 -653h-150l-176 653v-653h-156z" />
</font>
</defs>
</svg>
